<svg width="30" height="30" viewBox="0 0 30 30" fill="none" xmlns="http://www.w3.org/2000/svg">
<path d="M15.6241 10.0002H13.7491V17.5002L19.6866 21.0627L20.6241 19.5252L15.6241 16.5627V10.0002ZM21.6703 2.2627L27.4291 7.06895L25.8291 8.98769L20.0666 4.18395L21.6703 2.2627ZM8.32781 2.2627L9.93031 4.1827L4.17031 8.98769L2.57031 7.06769L8.32781 2.2627ZM14.9991 5.0002C12.0152 5.00036 9.15364 6.18585 7.04385 8.29587C4.93407 10.4059 3.7489 13.2676 3.74906 16.2514C3.74923 19.2353 4.93472 22.0969 7.04474 24.2067C9.15475 26.3164 12.0165 27.5016 15.0003 27.5014C16.4778 27.5014 17.9407 27.2103 19.3057 26.6448C20.6706 26.0793 21.9109 25.2505 22.9555 24.2058C24.0002 23.161 24.8288 21.9207 25.3941 20.5557C25.9595 19.1906 26.2504 17.7276 26.2503 16.2502C26.2502 14.7727 25.9591 13.3098 25.3937 11.9448C24.8282 10.5799 23.9994 9.33964 22.9546 8.29498C21.9099 7.25033 20.6696 6.42168 19.3045 5.85636C17.9395 5.29104 16.4765 5.00011 14.9991 5.0002ZM14.9991 25.0002C10.1741 25.0002 6.24906 21.0752 6.24906 16.2502C6.24906 11.4252 10.1741 7.5002 14.9991 7.5002C19.8241 7.5002 23.7491 11.4252 23.7491 16.2502C23.7491 21.0752 19.8241 25.0002 14.9991 25.0002Z" fill="#699BF7"/>
</svg>
