<svg width="30" height="30" viewBox="0 0 30 30" fill="none" xmlns="http://www.w3.org/2000/svg">
<path d="M27.5 15C27.5 14.5687 27.15 14.2187 26.7188 14.2187L6.44003 14.2187L14.4538 6.33746C14.5303 6.26636 14.5918 6.18064 14.6346 6.08537C14.6774 5.9901 14.7007 5.88721 14.703 5.78279C14.7054 5.67836 14.6868 5.57453 14.6483 5.47742C14.6099 5.38031 14.5523 5.2919 14.4791 5.21742C14.4059 5.14294 14.3184 5.0839 14.222 5.04379C14.1256 5.00368 14.0221 4.98331 13.9176 4.9839C13.8132 4.98449 13.7099 5.00601 13.6139 5.0472C13.5179 5.08839 13.4312 5.14841 13.3588 5.22371L3.99128 14.4356L3.9744 14.4518C3.89322 14.534 3.83136 14.6333 3.7933 14.7423C3.75525 14.8514 3.74196 14.9676 3.7544 15.0825C3.77399 15.2704 3.8613 15.4448 4.00003 15.5731L13.3588 24.7756C13.4312 24.8509 13.5179 24.9109 13.6139 24.9521C13.7099 24.9933 13.8132 25.0148 13.9176 25.0154C14.0221 25.016 14.1256 24.9956 14.222 24.9555C14.3184 24.9154 14.4059 24.8564 14.4791 24.7819C14.5523 24.7074 14.6099 24.619 14.6483 24.5219C14.6868 24.4248 14.7054 24.3209 14.703 24.2165C14.7007 24.1121 14.6774 24.0092 14.6346 23.9139C14.5918 23.8187 14.5303 23.7329 14.4538 23.6618L6.44003 15.7806L26.7188 15.7806C27.15 15.7806 27.5 15.4318 27.5 15Z" fill="#4692B6"/>
</svg>
