<svg width="221" height="221" viewBox="0 0 221 221" fill="none" xmlns="http://www.w3.org/2000/svg">
<path d="M110.501 18.4165C108.059 18.4165 105.717 19.3867 103.99 21.1136C102.263 22.8405 101.293 25.1826 101.293 27.6248V46.0415C101.293 48.4837 102.263 50.8259 103.99 52.5528C105.717 54.2797 108.059 55.2498 110.501 55.2498C112.944 55.2498 115.286 54.2797 117.013 52.5528C118.739 50.8259 119.71 48.4837 119.71 46.0415V27.6248C119.71 25.1826 118.739 22.8405 117.013 21.1136C115.286 19.3867 112.944 18.4165 110.501 18.4165ZM193.376 101.292H174.96C172.517 101.292 170.175 102.262 168.448 103.989C166.721 105.715 165.751 108.058 165.751 110.5C165.751 112.942 166.721 115.284 168.448 117.011C170.175 118.738 172.517 119.708 174.96 119.708H193.376C195.819 119.708 198.161 118.738 199.888 117.011C201.614 115.284 202.585 112.942 202.585 110.5C202.585 108.058 201.614 105.715 199.888 103.989C198.161 102.262 195.819 101.292 193.376 101.292ZM55.2513 110.5C55.2513 108.058 54.2811 105.715 52.5542 103.989C50.8273 102.262 48.4852 101.292 46.043 101.292H27.6263C25.1841 101.292 22.8419 102.262 21.115 103.989C19.3881 105.715 18.418 108.058 18.418 110.5C18.418 112.942 19.3881 115.284 21.115 117.011C22.8419 118.738 25.1841 119.708 27.6263 119.708H46.043C48.4852 119.708 50.8273 118.738 52.5542 117.011C54.2811 115.284 55.2513 112.942 55.2513 110.5ZM57.2771 46.0415C55.4821 44.3442 53.0864 43.4294 50.6169 43.4985C48.1474 43.5676 45.8066 44.6148 44.1092 46.4098C42.4119 48.2049 41.4971 50.6006 41.5662 53.0701C41.6353 55.5395 42.6825 57.8804 44.4776 59.5778L57.7376 72.3773C58.6274 73.2366 59.6812 73.9077 60.8362 74.3507C61.9911 74.7937 63.2234 74.9994 64.4596 74.9557C65.7 74.9509 66.9267 74.6956 68.066 74.2051C69.2053 73.7146 70.2338 72.9989 71.0896 72.1011C72.8047 70.3758 73.7674 68.0419 73.7674 65.6092C73.7674 63.1765 72.8047 60.8426 71.0896 59.1173L57.2771 46.0415ZM156.543 74.9557C158.914 74.9462 161.19 74.0227 162.897 72.3773L176.157 59.5778C177.774 57.8876 178.688 55.6451 178.712 53.3057C178.736 50.9663 177.869 48.7054 176.286 46.9823C174.704 45.2592 172.525 44.203 170.192 44.0283C167.859 43.8535 165.547 44.5733 163.725 46.0415L150.465 59.1173C148.75 60.8426 147.788 63.1765 147.788 65.6092C147.788 68.0419 148.75 70.3758 150.465 72.1011C152.06 73.7836 154.23 74.803 156.543 74.9557ZM110.501 165.75C108.059 165.75 105.717 166.72 103.99 168.447C102.263 170.174 101.293 172.516 101.293 174.958V193.375C101.293 195.817 102.263 198.159 103.99 199.886C105.717 201.613 108.059 202.583 110.501 202.583C112.944 202.583 115.286 201.613 117.013 199.886C118.739 198.159 119.71 195.817 119.71 193.375V174.958C119.71 172.516 118.739 170.174 117.013 168.447C115.286 166.72 112.944 165.75 110.501 165.75ZM163.265 148.622C161.507 146.925 159.146 145.996 156.702 146.039C154.259 146.082 151.933 147.094 150.235 148.853C148.538 150.611 147.609 152.972 147.652 155.415C147.695 157.859 148.707 160.185 150.465 161.882L163.725 174.958C165.433 176.604 167.708 177.527 170.079 177.537C171.313 177.544 172.536 177.303 173.675 176.828C174.814 176.354 175.846 175.655 176.709 174.774C177.572 173.918 178.257 172.9 178.725 171.777C179.192 170.655 179.433 169.452 179.433 168.236C179.433 167.02 179.192 165.817 178.725 164.695C178.257 163.573 177.572 162.554 176.709 161.698L163.265 148.622ZM57.7376 148.622L44.4776 161.422C43.6145 162.278 42.9294 163.296 42.4619 164.419C41.9944 165.541 41.7537 166.744 41.7537 167.96C41.7537 169.175 41.9944 170.379 42.4619 171.501C42.9294 172.623 43.6145 173.642 44.4776 174.498C45.3412 175.379 46.3732 176.078 47.5121 176.552C48.651 177.027 49.8737 177.267 51.1076 177.26C53.3775 177.28 55.5747 176.46 57.2771 174.958L70.5371 162.159C72.2955 160.461 73.3076 158.135 73.3508 155.691C73.394 153.248 72.4647 150.887 70.7673 149.129C69.07 147.37 66.7437 146.358 64.3001 146.315C61.8566 146.272 59.4959 147.201 57.7376 148.899V148.622Z" fill="#699BF7"/>
</svg>
