<svg width="25" height="25" viewBox="0 0 25 25" fill="none" xmlns="http://www.w3.org/2000/svg">
<path d="M12.4988 4.6875C7.66288 4.6875 3.70194 7.42188 1.62382 12.1875C1.5808 12.2861 1.55859 12.3925 1.55859 12.5C1.55859 12.6075 1.5808 12.7139 1.62382 12.8125C3.70194 17.5781 7.66288 20.3125 12.4988 20.3125C17.3348 20.3125 21.2879 17.5781 23.3738 12.8125C23.4168 12.7139 23.439 12.6075 23.439 12.5C23.439 12.3925 23.4168 12.2861 23.3738 12.1875C21.2879 7.42188 17.3191 4.6875 12.4988 4.6875ZM12.4988 18.75C8.42069 18.75 5.0535 16.4766 3.20194 12.5C5.0535 8.52344 8.42069 6.25 12.4988 6.25C16.5769 6.25 19.9363 8.52344 21.7957 12.5C19.9363 16.4766 16.5691 18.75 12.4988 18.75Z" fill="#4692B6"/>
<path d="M17.7344 10.5859C17.6194 10.5391 17.495 10.5204 17.3714 10.5313C17.2477 10.5421 17.1285 10.5823 17.0234 10.6484C16.721 10.8367 16.3719 10.9368 16.0156 10.9375C15.4976 10.9375 15.0008 10.7317 14.6346 10.3655C14.2683 9.99917 14.0625 9.50238 14.0625 8.98438C14.0632 8.62809 14.1633 8.27906 14.3516 7.97657C14.4177 7.87155 14.4579 7.75229 14.4687 7.62866C14.4796 7.50502 14.4609 7.38058 14.4141 7.26563C14.3669 7.15172 14.2935 7.05058 14.1999 6.97047C14.1062 6.89036 13.9948 6.83355 13.875 6.8047C13.4249 6.69489 12.9633 6.63981 12.5 6.64063C11.3411 6.64063 10.2083 6.98428 9.24471 7.62812C8.28114 8.27195 7.53013 9.18706 7.08665 10.2577C6.64316 11.3284 6.52713 12.5065 6.75321 13.6431C6.9793 14.7797 7.53735 15.8238 8.3568 16.6432C9.17625 17.4627 10.2203 18.0207 11.3569 18.2468C12.4935 18.4729 13.6716 18.3568 14.7423 17.9134C15.8129 17.4699 16.7281 16.7189 17.3719 15.7553C18.0157 14.7917 18.3594 13.6589 18.3594 12.5C18.3602 12.0367 18.3051 11.5751 18.1953 11.125C18.1665 11.0052 18.1097 10.8938 18.0295 10.8002C17.9494 10.7065 17.8483 10.6331 17.7344 10.5859Z" fill="#4692B6"/>
</svg>
