<svg width="165" height="44" viewBox="0 0 165 44" fill="none" xmlns="http://www.w3.org/2000/svg">
<path d="M65.08 17.152V34H60.976V27.064H54.592V34H50.488V17.152H54.592V23.752H60.976V17.152H65.08ZM67.2267 27.28C67.2267 25.904 67.4827 24.696 67.9947 23.656C68.5227 22.616 69.2347 21.816 70.1307 21.256C71.0267 20.696 72.0267 20.416 73.1307 20.416C74.0747 20.416 74.8987 20.608 75.6027 20.992C76.3227 21.376 76.8747 21.88 77.2587 22.504V20.608H81.3627V34H77.2587V32.104C76.8587 32.728 76.2987 33.232 75.5787 33.616C74.8747 34 74.0507 34.192 73.1067 34.192C72.0187 34.192 71.0267 33.912 70.1307 33.352C69.2347 32.776 68.5227 31.968 67.9947 30.928C67.4827 29.872 67.2267 28.656 67.2267 27.28ZM77.2587 27.304C77.2587 26.28 76.9707 25.472 76.3947 24.88C75.8347 24.288 75.1467 23.992 74.3307 23.992C73.5147 23.992 72.8187 24.288 72.2427 24.88C71.6827 25.456 71.4027 26.256 71.4027 27.28C71.4027 28.304 71.6827 29.12 72.2427 29.728C72.8187 30.32 73.5147 30.616 74.3307 30.616C75.1467 30.616 75.8347 30.32 76.3947 29.728C76.9707 29.136 77.2587 28.328 77.2587 27.304ZM83.5158 27.304C83.5158 25.912 83.7958 24.696 84.3558 23.656C84.9318 22.616 85.7238 21.816 86.7318 21.256C87.7558 20.696 88.9238 20.416 90.2358 20.416C91.9158 20.416 93.3158 20.856 94.4358 21.736C95.5718 22.616 96.3158 23.856 96.6678 25.456H92.2998C91.9318 24.432 91.2198 23.92 90.1638 23.92C89.4118 23.92 88.8118 24.216 88.3638 24.808C87.9158 25.384 87.6918 26.216 87.6918 27.304C87.6918 28.392 87.9158 29.232 88.3638 29.824C88.8118 30.4 89.4118 30.688 90.1638 30.688C91.2198 30.688 91.9318 30.176 92.2998 29.152H96.6678C96.3158 30.72 95.5718 31.952 94.4358 32.848C93.2998 33.744 91.8998 34.192 90.2358 34.192C88.9238 34.192 87.7558 33.912 86.7318 33.352C85.7238 32.792 84.9318 31.992 84.3558 30.952C83.7958 29.912 83.5158 28.696 83.5158 27.304ZM107.047 34L102.967 28.384V34H98.863V16.24H102.967V26.056L107.023 20.608H112.087L106.519 27.328L112.135 34H107.047ZM125.819 17.152V20.44H121.355V34H117.251V20.44H112.787V17.152H125.819ZM127.063 27.28C127.063 25.904 127.319 24.696 127.831 23.656C128.359 22.616 129.071 21.816 129.967 21.256C130.863 20.696 131.863 20.416 132.967 20.416C133.911 20.416 134.735 20.608 135.439 20.992C136.159 21.376 136.711 21.88 137.095 22.504V20.608H141.199V34H137.095V32.104C136.695 32.728 136.135 33.232 135.415 33.616C134.711 34 133.887 34.192 132.943 34.192C131.855 34.192 130.863 33.912 129.967 33.352C129.071 32.776 128.359 31.968 127.831 30.928C127.319 29.872 127.063 28.656 127.063 27.28ZM137.095 27.304C137.095 26.28 136.807 25.472 136.231 24.88C135.671 24.288 134.983 23.992 134.167 23.992C133.351 23.992 132.655 24.288 132.079 24.88C131.519 25.456 131.239 26.256 131.239 27.28C131.239 28.304 131.519 29.12 132.079 29.728C132.655 30.32 133.351 30.616 134.167 30.616C134.983 30.616 135.671 30.32 136.231 29.728C136.807 29.136 137.095 28.328 137.095 27.304ZM148.272 16.24V34H144.168V16.24H148.272ZM159.43 34L155.35 28.384V34H151.246V16.24H155.35V26.056L159.406 20.608H164.47L158.902 27.328L164.518 34H159.43Z" fill="url(#paint0_linear_146_686)"/>
<path d="M40.0237 23.771C40.0237 23.064 39.4368 22.491 38.7128 22.491C37.9888 22.491 37.4019 23.064 37.4019 23.771V29.2699C37.4019 29.9768 37.9888 30.5499 38.7128 30.5499C39.4368 30.5499 40.0237 29.9768 40.0237 29.2699V23.771Z" fill="#4692B6" stroke="#4692B6" stroke-width="2" stroke-miterlimit="10"/>
<path d="M4.59746 23.771C4.59746 23.064 4.01053 22.491 3.28652 22.491C2.56251 22.491 1.97559 23.064 1.97559 23.771V29.2699C1.97559 29.9768 2.56251 30.5499 3.28652 30.5499C4.01053 30.5499 4.59746 29.9768 4.59746 29.2699V23.771Z" fill="#4692B6" stroke="#4692B6" stroke-width="2" stroke-miterlimit="10"/>
<path d="M32.8276 28.7177C31.7725 29.7473 30.3417 30.3257 28.8498 30.3257C27.3578 30.3257 25.927 29.7473 24.872 28.7177C23.8168 27.6881 22.3858 27.1096 20.8937 27.1096C19.4017 27.1096 17.9707 27.6881 16.9155 28.7177C16.1288 29.4855 15.1265 30.0084 14.0353 30.2202C12.9442 30.432 11.8132 30.3232 10.7853 29.9077C9.75752 29.4921 8.87903 28.7883 8.26095 27.8854C7.64288 26.9825 7.31299 25.921 7.31299 24.8351C7.31299 23.7492 7.64288 22.6877 8.26095 21.7848C8.87903 20.8819 9.75752 20.1781 10.7853 19.7625C11.8132 19.347 12.9442 19.2382 14.0353 19.45C15.1265 19.6618 16.1288 20.1847 16.9155 20.9525C17.9707 21.9821 19.4017 22.5606 20.8937 22.5606C22.3858 22.5606 23.8168 21.9821 24.872 20.9525C25.9269 19.9227 27.3578 19.3442 28.8498 19.3442C30.3417 19.3442 31.7726 19.9227 32.8276 20.9525C33.8825 21.9822 34.4752 23.3788 34.4752 24.8351C34.4752 26.2914 33.8825 27.688 32.8276 28.7177Z" stroke="#4692B6" stroke-width="2" stroke-miterlimit="10"/>
<path d="M24.4169 31.8564C20.9979 38.8361 17.6621 31.8564 17.6621 31.8564H24.4169Z" fill="#4692B6" stroke="#4692B6" stroke-linecap="round" stroke-linejoin="round"/>
<path d="M21.04 11.6487V5.64111" stroke="#4692B6" stroke-width="2" stroke-miterlimit="10" stroke-linecap="round"/>
<path d="M20.9653 3.297C21.753 3.297 22.3915 2.67374 22.3915 1.90491C22.3915 1.13608 21.753 0.512817 20.9653 0.512817C20.1776 0.512817 19.5391 1.13608 19.5391 1.90491C19.5391 2.67374 20.1776 3.297 20.9653 3.297Z" stroke="#4692B6" stroke-miterlimit="10" stroke-linecap="round"/>
<path d="M31.417 8.73655C31.2455 10.8105 31.699 13.05 32.7395 15.2511C33.1353 16.0887 33.5936 16.8968 34.1108 17.6689C35.1496 19.2274 35.8807 20.6722 36.2853 21.9681C36.3059 22.2191 36.317 22.4751 36.317 22.7269V28.8482C36.3172 31.3 35.3198 33.6515 33.544 35.3855C31.7683 37.1196 29.3596 38.0942 26.8478 38.0951H15.0858C13.8413 38.0958 12.6089 37.8571 11.459 37.3926C10.309 36.9282 9.26414 36.2472 8.38397 35.3885C7.50379 34.5298 6.8056 33.5102 6.32928 32.388C5.85297 31.2657 5.60786 30.0629 5.60798 28.8482V22.7269C5.60786 21.5122 5.85297 20.3094 6.32928 19.1872C6.8056 18.065 7.50379 17.0454 8.38397 16.1866C9.26414 15.3279 10.309 14.6469 11.459 14.1825C12.6089 13.7181 13.8413 13.4794 15.0858 13.48H27.1538L27.7366 12.6669C28.3623 11.7935 29.3436 10.5369 30.4647 9.51291C30.7654 9.23511 31.0834 8.97583 31.417 8.73655ZM33.1706 6.07619C30.433 6.07619 27.482 9.69947 26.1424 11.5751H15.0858C13.5854 11.575 12.0997 11.8634 10.7134 12.4238C9.32723 12.9842 8.06769 13.8056 7.00674 14.8411C5.9458 15.8767 5.10423 17.1061 4.5301 18.4592C3.95597 19.8122 3.66053 21.2624 3.66064 22.7269V28.8482C3.66053 30.3127 3.95597 31.7629 4.5301 33.116C5.10423 34.469 5.9458 35.6984 7.00674 36.734C8.06769 37.7695 9.32723 38.591 10.7134 39.1514C12.0997 39.7118 13.5854 40.0001 15.0858 40H26.8478C28.3482 40.0001 29.8339 39.7118 31.2201 39.1514C32.6063 38.591 33.8659 37.7695 34.9268 36.734C35.9878 35.6984 36.8293 34.469 37.4035 33.116C37.9776 31.7629 38.273 30.3127 38.2729 28.8482V22.7269C38.2729 22.3488 38.2538 21.9762 38.2155 21.6092C37.8264 20.284 37.085 18.6318 35.7505 16.6298C35.2835 15.9354 34.8696 15.2084 34.512 14.4547C32.1241 9.40164 34.0997 6.22594 34.0997 6.22594C33.8007 6.12579 33.4867 6.07517 33.1706 6.07619Z" fill="#4692B6"/>
<defs>
<linearGradient id="paint0_linear_146_686" x1="107" y1="8" x2="210.761" y2="8" gradientUnits="userSpaceOnUse">
<stop stop-color="#60B0D7"/>
<stop offset="1" stop-color="#162E39"/>
</linearGradient>
</defs>
</svg>
