<svg width="75" height="75" viewBox="0 0 75 75" fill="none" xmlns="http://www.w3.org/2000/svg">
<path d="M37.5 68.75C54.7594 68.75 68.75 54.7594 68.75 37.5C68.75 20.2406 54.7594 6.25 37.5 6.25C20.2406 6.25 6.25 20.2406 6.25 37.5C6.25 54.7594 20.2406 68.75 37.5 68.75Z" stroke="#4692B6" stroke-width="5" stroke-linejoin="round"/>
<g clip-path="url(#clip0_448_49156)">
<path fill-rule="evenodd" clip-rule="evenodd" d="M52.0177 27.7179C52.4335 28.1338 52.6671 28.6978 52.6671 29.2859C52.6671 29.8739 52.4335 30.4379 52.0177 30.8538L35.395 47.4765C35.1754 47.6963 34.9146 47.8706 34.6275 47.9895C34.3405 48.1084 34.0328 48.1696 33.7221 48.1696C33.4114 48.1696 33.1038 48.1084 32.8167 47.9895C32.5297 47.8706 32.2689 47.6963 32.0492 47.4765L23.7903 39.2191C23.5785 39.0146 23.4096 38.7698 23.2933 38.4993C23.1771 38.2287 23.1159 37.9377 23.1134 37.6432C23.1108 37.3487 23.1669 37.0567 23.2784 36.7842C23.3899 36.5116 23.5546 36.264 23.7628 36.0558C23.9711 35.8475 24.2187 35.6829 24.4912 35.5714C24.7638 35.4598 25.0558 35.4037 25.3503 35.4063C25.6448 35.4088 25.9358 35.47 26.2063 35.5863C26.4769 35.7025 26.7216 35.8714 26.9262 36.0833L33.7214 42.8784L48.8804 27.7179C49.0863 27.5118 49.3309 27.3484 49.6 27.2368C49.8692 27.1253 50.1577 27.0679 50.4491 27.0679C50.7404 27.0679 51.0289 27.1253 51.2981 27.2368C51.5673 27.3484 51.8118 27.5118 52.0177 27.7179Z" fill="#4692B6"/>
</g>
<defs>
<clipPath id="clip0_448_49156">
<rect width="35.4839" height="35.4839" fill="white" transform="translate(20.1602 20.1611)"/>
</clipPath>
</defs>
</svg>
